<?xml version="1.0" standalone="no"?>
<!DOCTYPE svg PUBLIC "-//W3C//DTD SVG 20010904//EN"
 "http://www.w3.org/TR/2001/REC-SVG-20010904/DTD/svg10.dtd">
<svg version="1.0" xmlns="http://www.w3.org/2000/svg"
 width="304.000000pt" height="304.000000pt" viewBox="0 0 304.000000 304.000000"
 preserveAspectRatio="xMidYMid meet">
<metadata>
Created by potrace 1.14, written by Peter Selinger 2001-2017
</metadata>
<g transform="translate(0.000000,304.000000) scale(0.100000,-0.100000)"
fill="#000000" stroke="none">
<path d="M1660 2580 c-9 -6 -10 -10 -3 -10 6 0 15 5 18 10 8 12 4 12 -15 0z"/>
<path d="M1719 2583 c-1 -5 -2 -12 -3 -18 -3 -22 -29 -75 -37 -75 -13 0 -11
18 3 22 8 3 6 12 -6 29 -11 14 -16 17 -13 7 4 -11 -1 -21 -13 -28 -12 -6 -17
-17 -14 -28 5 -14 4 -14 -4 -3 -16 23 -53 21 -63 -3 -9 -20 -9 -20 -5 2 2 12
0 22 -5 22 -5 0 -9 5 -9 11 0 6 5 7 13 2 19 -12 61 -10 75 3 17 18 15 29 -3
14 -12 -10 -18 -10 -32 1 -16 13 -17 12 -4 -3 8 -11 9 -18 3 -18 -6 0 -16 8
-21 18 -8 13 -10 14 -11 2 0 -12 -2 -13 -9 -1 -7 11 -10 9 -16 -8 -3 -12 -10
-19 -15 -16 -5 3 -7 13 -4 23 5 16 5 16 -6 0 -6 -9 -17 -15 -25 -11 -9 3 -22
0 -29 -6 -9 -8 -17 -8 -20 -2 -3 5 -1 12 4 14 6 3 5 4 -2 3 -7 -2 -12 -9 -10
-16 2 -8 -3 -10 -13 -6 -11 4 -14 2 -9 -6 5 -8 2 -9 -10 -5 -14 5 -17 3 -13
-8 4 -8 2 -17 -3 -20 -4 -3 -7 -16 -6 -30 2 -13 -1 -22 -5 -19 -10 6 -7 33 4
52 10 15 -5 16 -21 0 -9 -9 -15 -9 -24 1 -11 10 -9 11 6 5 15 -6 17 -4 11 6
-5 8 -4 11 2 7 11 -7 28 22 18 31 -3 3 -5 1 -5 -5 0 -18 -46 -33 -60 -20 -10
9 -11 9 -6 0 9 -16 -35 -13 -46 2 -5 6 -8 6 -8 -2 0 -6 -11 -10 -25 -9 -16 2
-22 -1 -17 -8 12 -18 9 -53 -5 -53 -6 0 -11 3 -9 6 2 3 -3 13 -12 21 -9 8 -17
13 -18 10 -1 -3 -5 -2 -8 1 -3 3 2 6 12 6 9 0 20 -5 24 -11 4 -6 10 -7 14 -3
12 12 -4 20 -41 22 -28 2 -33 -1 -24 -11 6 -7 7 -19 3 -25 -5 -9 -2 -10 12 -5
15 6 17 5 7 -5 -10 -10 -16 -10 -25 -1 -16 16 -28 15 -28 -3 0 -8 -4 -15 -8
-15 -5 0 -8 13 -7 30 1 16 -2 27 -7 24 -5 -4 -7 -12 -4 -20 3 -7 0 -16 -6 -20
-7 -5 -6 -11 6 -19 15 -11 15 -13 1 -19 -9 -3 -13 -2 -10 3 3 5 1 12 -4 15 -5
4 -8 17 -5 31 2 13 0 26 -6 30 -6 4 -7 -1 -3 -11 5 -14 3 -15 -15 -5 -19 10
-21 9 -15 -6 6 -16 5 -16 -11 -4 -9 8 -16 10 -15 5 4 -21 -2 -28 -12 -14 -9
13 -10 13 -6 0 2 -8 14 -14 25 -14 28 2 28 -7 1 -24 -12 -8 -18 -9 -15 -3 4 5
-2 15 -13 21 -14 7 -22 7 -26 0 -4 -6 -12 -10 -18 -9 -22 3 -37 -1 -37 -9 0
-5 7 -9 15 -9 8 0 11 5 8 11 -3 6 -2 7 2 3 16 -14 13 -33 -6 -34 -11 -1 -19 3
-19 8 0 6 -4 8 -9 4 -6 -3 -8 6 -5 22 3 15 4 25 2 23 -2 -3 -9 -12 -16 -22
-11 -14 -10 -20 8 -36 25 -23 11 -39 -18 -23 -11 6 -22 7 -26 4 -3 -3 -6 -1
-6 5 0 6 5 14 10 17 6 3 10 1 10 -4 0 -6 5 -11 11 -11 8 0 8 5 -1 15 -17 20
-27 19 -35 -4 -3 -11 -12 -18 -20 -15 -7 3 -16 0 -20 -5 -3 -6 -11 -8 -17 -5
-6 4 -8 2 -5 -3 4 -6 -1 -17 -10 -24 -14 -12 -15 -11 -9 9 5 15 3 22 -5 22 -7
0 -9 -3 -6 -7 4 -3 0 -14 -9 -24 -14 -15 -14 -17 1 -15 10 0 21 -10 26 -24 8
-21 7 -22 -3 -9 -18 22 -58 32 -51 11 5 -11 3 -13 -8 -7 -12 8 -12 6 0 -8 11
-15 11 -17 -2 -17 -16 0 -30 26 -22 40 3 5 1 11 -4 14 -11 7 -8 -32 6 -59 5
-11 8 -26 7 -32 -1 -7 -2 -17 -3 -22 0 -5 -10 -12 -21 -16 -22 -7 -22 -27 0
-37 11 -5 10 -7 -6 -7 -32 -1 -36 -12 -14 -36 16 -17 17 -22 6 -22 -8 0 -13 4
-10 8 2 4 0 10 -6 14 -5 3 -10 1 -10 -6 0 -7 -3 -9 -7 -6 -3 4 -11 3 -18 -1
-6 -4 -2 1 8 11 13 12 15 17 6 17 -9 1 -8 4 4 11 9 6 15 14 12 20 -4 5 -1 9 4
9 6 0 10 3 10 8 -3 20 2 32 14 29 6 -1 11 4 9 11 -1 8 2 11 8 7 6 -3 7 0 4 9
-3 9 -10 16 -16 16 -5 0 -7 4 -3 9 3 5 1 12 -4 15 -10 7 -9 -20 2 -30 14 -14
-5 -24 -21 -12 -15 11 -15 11 -6 -2 8 -11 8 -21 -1 -37 -9 -17 -15 -19 -30
-11 -14 6 -12 3 5 -12 16 -14 19 -20 8 -17 -12 5 -16 1 -13 -14 3 -13 0 -19
-8 -16 -7 3 -11 10 -9 16 1 7 -2 10 -8 6 -7 -4 -7 -11 -2 -18 14 -19 11 -49
-5 -43 -8 3 -12 2 -8 -3 3 -5 -7 -14 -22 -20 l-28 -11 28 5 c17 4 26 2 23 -4
-4 -5 -1 -13 5 -17 8 -5 9 -3 4 5 -5 9 -1 9 14 -1 25 -15 26 -24 6 -32 -8 -3
-14 -11 -13 -17 2 -6 -6 -12 -18 -13 -11 -2 -21 3 -21 10 0 7 4 11 9 8 11 -7
38 14 38 29 0 5 -9 2 -19 -7 -13 -12 -21 -14 -26 -6 -10 16 -23 3 -40 -37 -17
-41 -19 -53 -5 -53 5 0 7 8 4 18 -5 14 -4 15 6 2 9 -12 10 -10 5 10 -5 19 -4
22 4 10 9 -12 11 -13 11 -1 0 8 3 11 6 8 4 -4 -1 -18 -11 -33 -16 -25 -16 -27
-1 -21 10 4 15 3 11 -3 -3 -6 2 -10 12 -11 14 0 15 -2 3 -6 -33 -13 -39 -36
-18 -65 10 -16 15 -28 9 -28 -5 0 -13 9 -16 20 -4 11 -10 18 -14 15 -9 -5 -7
-48 4 -64 12 -20 14 -51 3 -57 -7 -4 -8 -2 -4 4 4 8 0 12 -12 12 -10 0 -19 -6
-20 -12 0 -7 -3 -23 -6 -35 -3 -16 1 -26 15 -33 10 -6 19 -16 19 -23 0 -9 -2
-9 -8 0 -9 13 -26 5 -30 -15 -2 -9 4 -11 18 -7 12 4 20 2 20 -5 0 -6 -4 -9 -8
-6 -4 2 -13 -4 -20 -15 -15 -23 -4 -25 25 -4 19 13 22 13 34 -3 12 -15 12 -15
-1 -5 -24 18 -54 -9 -44 -39 4 -13 8 -27 9 -31 0 -4 6 -12 14 -16 9 -6 10 -11
2 -15 -6 -4 -11 -2 -11 4 0 6 -5 8 -10 5 -6 -4 -8 -10 -5 -15 3 -5 -4 -14 -16
-20 -17 -10 -20 -9 -16 2 2 7 9 12 14 11 5 -1 10 4 10 12 0 8 -4 12 -8 9 -4
-2 -10 0 -14 6 -3 5 1 10 10 10 9 0 13 5 10 10 -5 8 -11 8 -20 0 -9 -8 -15 -8
-20 0 -3 5 1 10 9 10 9 0 16 5 16 11 0 5 -4 8 -8 5 -5 -3 -9 1 -9 9 0 18 13
20 20 3 4 -10 6 -10 6 0 1 7 -6 15 -14 18 -14 6 -13 8 2 21 10 8 13 12 6 9 -7
-4 -10 1 -8 11 1 10 0 23 -4 28 -11 19 -9 35 2 28 8 -5 8 -2 0 9 -7 8 -9 18
-5 23 4 4 -3 3 -14 -3 -12 -6 -24 -8 -28 -4 -4 3 -4 -2 0 -13 5 -11 9 -14 12
-7 5 16 23 16 19 0 -4 -20 -21 -36 -32 -30 -5 2 -4 -1 3 -9 18 -19 15 -34 -5
-18 -15 13 -15 12 -2 -8 l14 -23 11 22 c6 11 14 16 17 11 4 -6 0 -19 -7 -29
-11 -15 -12 -22 -3 -33 10 -11 8 -13 -13 -7 -21 6 -22 5 -7 -4 9 -6 15 -16 11
-21 -3 -6 3 -17 15 -25 12 -9 19 -20 15 -25 -3 -6 -12 -3 -20 8 -12 14 -11 10
1 -15 9 -18 13 -38 9 -44 -4 -6 -3 -8 3 -5 6 4 16 0 23 -9 11 -12 9 -20 -8
-44 -16 -22 -19 -31 -9 -36 6 -4 9 -4 5 1 -14 15 12 35 32 25 13 -7 19 -6 23
4 4 10 0 12 -14 9 -11 -3 -19 0 -19 6 0 7 4 10 9 6 5 -3 12 -1 16 4 3 5 -3 14
-12 20 -14 8 -15 10 -3 11 13 0 13 1 0 10 -13 9 -13 10 0 10 12 0 12 2 2 9
-11 7 -10 9 3 14 9 4 14 3 10 -2 -3 -5 1 -11 7 -14 10 -3 10 -7 -1 -20 -15
-19 -1 -23 17 -5 8 8 12 9 12 1 0 -6 -6 -13 -12 -16 -23 -8 6 -42 33 -40 22 2
22 2 4 -6 -11 -5 -16 -10 -11 -10 5 -1 1 -10 -9 -21 -10 -11 -14 -20 -9 -20 5
0 1 -5 -9 -11 -17 -10 -16 -12 3 -36 11 -14 17 -30 13 -36 -3 -6 -1 -7 5 -3 7
4 12 3 12 -2 0 -17 -13 -22 -29 -9 -14 11 -14 10 -3 -5 13 -16 16 -16 40 -1
15 9 35 24 45 32 16 13 17 13 12 -1 -4 -9 -13 -19 -21 -22 -8 -3 -14 -10 -14
-16 0 -12 22 -9 32 5 4 5 11 6 15 1 4 -5 2 -11 -5 -13 -6 -3 -9 -9 -6 -14 3
-6 12 -5 22 3 14 10 15 10 5 -2 -15 -17 -17 -44 -3 -35 6 3 10 1 10 -5 0 -7
-7 -9 -16 -6 -9 3 -17 6 -20 6 -2 0 -1 8 2 18 5 15 4 15 -6 2 -10 -13 -11 -12
-6 3 4 12 2 16 -6 11 -7 -4 -8 -3 -4 4 5 8 2 10 -8 6 -31 -12 -10 -59 26 -59
13 0 22 -5 20 -12 -1 -7 2 -13 8 -13 5 0 10 4 10 10 0 5 8 14 18 19 14 7 19 6
19 -4 0 -7 -6 -11 -14 -8 -9 4 -11 0 -7 -11 3 -9 10 -13 15 -10 5 3 9 2 8 -3
-4 -22 2 -34 14 -27 10 6 10 4 0 -7 -19 -20 -16 -33 5 -18 15 13 16 12 3 -4
-11 -13 -17 -15 -28 -6 -9 8 -10 14 -3 19 6 4 4 13 -6 26 -15 18 -15 18 -10 0
4 -10 1 -25 -5 -33 -9 -10 -9 -17 -1 -25 9 -9 12 -9 12 1 0 7 5 9 10 6 6 -4 8
-11 4 -16 -3 -6 2 -19 11 -29 13 -14 14 -23 6 -39 -15 -27 -13 -41 2 -16 15
24 34 30 53 14 17 -14 19 2 1 20 -8 9 -8 12 0 7 6 -3 13 -3 16 1 2 5 2 2 1 -5
-2 -6 2 -12 8 -12 9 0 9 -3 0 -12 -16 -16 -16 -33 1 -21 14 12 47 24 47 18 0
-2 -14 -10 -30 -19 -28 -13 -31 -13 -40 5 -9 16 -14 17 -30 6 -11 -6 -20 -16
-20 -21 0 -5 9 -1 21 10 16 15 21 16 19 4 -4 -28 0 -50 10 -50 5 0 6 7 3 17
-4 11 -3 14 5 9 6 -4 21 -2 33 4 11 7 23 9 26 6 3 -3 -6 -10 -20 -15 -18 -7
-25 -15 -21 -26 3 -8 11 -15 16 -15 6 0 6 6 -2 14 -10 13 -7 14 16 10 36 -7
36 -6 25 -37 -6 -15 -16 -25 -23 -23 -7 1 -10 1 -5 -1 4 -3 5 -9 1 -14 -3 -5
-1 -9 5 -9 5 0 11 6 14 13 2 6 8 9 12 5 4 -4 2 -15 -5 -23 -9 -11 -10 -19 -3
-26 8 -8 13 -7 18 2 6 8 4 10 -5 4 -8 -5 -11 -3 -9 4 3 7 7 11 9 9 3 -1 23 8
45 20 22 13 32 17 23 9 -10 -8 -14 -18 -10 -22 4 -5 1 -5 -5 -1 -8 4 -13 1
-13 -9 0 -10 -5 -13 -12 -9 -10 6 -10 5 -1 -8 7 -8 9 -19 5 -24 -4 -4 1 -2 11
5 20 15 23 2 5 -18 -8 -9 -8 -11 -2 -8 7 4 14 0 18 -8 3 -8 10 -15 16 -15 6 0
4 7 -5 16 -9 9 -14 18 -12 21 12 11 51 10 82 -3 40 -16 46 -25 13 -17 -23 5
-23 5 -3 -10 11 -8 23 -13 27 -11 5 3 8 0 8 -5 0 -6 -5 -11 -11 -11 -5 0 -8
-4 -4 -9 5 -10 37 -7 55 4 6 3 10 1 10 -4 0 -6 -7 -11 -15 -11 -25 0 -17 -15
9 -16 19 -1 23 2 19 15 -4 14 -3 14 6 1 10 -13 12 -13 21 0 7 11 10 11 10 2 0
-7 -7 -15 -15 -18 -8 -4 -12 -10 -9 -16 3 -5 12 -4 22 4 12 10 14 10 8 1 -9
-16 6 -17 21 -2 7 7 13 7 17 1 3 -5 -2 -16 -11 -23 -19 -16 -23 -16 -34 3 -7
10 -9 10 -9 1 0 -7 -5 -13 -10 -13 -6 0 -9 6 -8 12 2 7 -3 12 -9 10 -7 -1 -13
2 -13 7 0 6 -8 9 -18 8 -15 -1 -17 -5 -8 -24 8 -16 12 -18 14 -8 2 8 8 13 13
9 5 -3 6 -11 3 -17 -4 -7 -4 -9 0 -5 11 9 46 -23 39 -35 -3 -6 -1 -7 5 -3 6 4
22 2 34 -4 19 -9 21 -9 8 2 -9 7 -15 19 -15 25 0 18 42 46 50 33 4 -6 11 -7
17 -4 6 4 5 10 -3 15 -10 6 -10 9 -2 9 7 0 10 7 7 15 -4 8 -2 15 4 15 5 0 9
-9 8 -20 0 -11 3 -19 8 -19 5 0 13 -6 18 -15 5 -9 14 -14 20 -10 6 4 5 10 -3
15 -10 6 -10 9 -2 9 6 0 15 -4 18 -10 3 -5 11 -10 18 -10 8 0 8 3 -1 12 -15
15 -15 28 -1 28 5 0 8 -4 4 -9 -3 -5 -1 -12 4 -16 6 -3 8 -12 4 -21 -4 -12 -8
-12 -21 -2 -9 7 -13 8 -9 2 7 -12 -41 -13 -60 -1 -6 4 -13 1 -16 -5 -3 -10 -7
-10 -19 0 -23 18 -29 2 -12 -28 l15 -25 -7 25 c-7 25 -6 25 14 7 13 -12 22
-15 27 -8 3 6 11 11 18 11 8 0 8 -3 -1 -12 -7 -7 -12 -17 -12 -22 0 -6 7 0 17
13 13 20 18 22 27 10 6 -8 17 -14 24 -13 6 1 17 2 23 3 6 0 9 9 7 19 -3 10 1
27 8 37 8 10 14 14 14 8 0 -7 -5 -15 -11 -19 -8 -5 -8 -9 1 -14 9 -6 9 -13 1
-28 -8 -15 -8 -23 1 -28 6 -4 9 -3 5 2 -3 5 0 20 7 33 l13 24 22 -22 c11 -11
21 -16 21 -9 0 6 3 8 7 5 10 -11 32 13 26 29 -3 8 -1 14 5 14 6 0 19 3 29 6
12 3 10 1 -5 -8 -12 -8 -19 -18 -15 -22 4 -4 -5 -19 -22 -33 -28 -23 -17 -23
13 1 21 16 55 19 46 4 -5 -8 0 -7 11 2 17 14 18 13 12 -4 -6 -16 -5 -17 8 -6
12 10 13 15 3 21 -6 4 -16 5 -22 2 -5 -3 -6 -1 -2 5 9 16 -7 15 -22 0 -9 -9
-12 -9 -12 0 0 7 5 12 10 12 6 0 19 9 30 20 11 11 20 16 20 12 0 -4 -5 -13
-12 -20 -9 -9 -9 -12 -1 -12 7 0 15 5 18 10 4 6 11 8 16 5 5 -4 9 0 9 7 0 8 5
6 11 -5 9 -15 13 -16 27 -5 12 10 14 10 8 1 -4 -8 -1 -13 8 -13 9 0 16 -4 16
-9 0 -5 9 -11 21 -14 14 -4 18 -10 13 -19 -12 -19 -14 -39 -2 -32 5 3 7 9 4
12 -9 8 25 42 36 36 5 -3 1 -12 -9 -20 -16 -13 -15 -13 10 -3 31 14 33 21 10
40 -9 8 -14 9 -10 3 4 -7 -2 -10 -16 -10 -28 2 -47 14 -47 29 0 7 4 6 10 -3 5
-8 10 -11 10 -6 0 5 7 3 15 -4 11 -9 15 -9 15 -1 0 7 10 10 25 7 13 -3 27 -1
30 4 9 14 47 -29 41 -45 -3 -8 0 -17 6 -21 6 -4 8 -3 4 4 -3 6 -2 13 4 17 7 4
7 12 0 25 -13 24 -13 27 3 27 7 0 13 -10 13 -21 -1 -15 5 -21 22 -21 13 0 29
-7 35 -15 7 -8 21 -22 32 -30 18 -14 19 -14 7 2 -7 9 -9 18 -5 20 4 3 3 3 -4
2 -21 -5 -24 13 -4 19 21 5 41 -9 37 -27 -2 -6 -1 -8 1 -3 3 4 10 4 15 1 7 -5
8 -2 3 6 -6 10 -4 12 9 7 13 -5 15 -3 7 11 -6 12 -5 25 5 42 l13 25 -3 -31
c-2 -17 3 -39 10 -49 8 -11 14 -13 14 -7 0 7 4 12 10 12 5 0 7 -8 4 -17 -5
-15 -4 -16 5 -3 8 11 7 18 -6 27 -9 7 -18 23 -20 35 -2 13 0 18 4 12 5 -6 15
-14 23 -17 11 -4 10 -6 -5 -6 -16 -1 -15 -4 9 -16 19 -10 33 -12 39 -6 7 7 17
7 29 0 14 -8 26 -6 44 6 20 13 23 19 13 36 -10 19 -9 20 10 9 12 -6 21 -13 21
-16 0 -3 -3 -3 -8 0 -4 2 -7 -13 -7 -34 0 -21 3 -36 8 -33 4 2 5 14 1 25 -3
12 -2 18 3 15 5 -3 21 0 36 8 27 14 36 8 17 -11 -8 -8 -5 -15 7 -25 16 -13 17
-12 5 3 -8 10 -9 19 -3 22 5 4 12 2 16 -4 3 -5 12 -10 18 -10 7 0 4 5 -5 11
-10 5 -18 15 -18 21 0 6 7 5 18 -3 15 -12 16 -12 5 2 -7 9 -10 19 -7 22 4 4
-2 5 -12 3 -11 -2 -28 2 -39 10 -16 12 -17 14 -2 14 9 0 17 -5 17 -10 0 -17
24 -6 33 14 7 19 8 19 21 0 8 -10 12 -21 10 -24 -3 -2 -9 2 -14 10 -6 9 -10
10 -10 3 0 -10 26 -43 34 -43 10 0 -2 68 -14 78 -13 11 -12 11 7 2 18 -8 24
-7 32 7 10 17 10 16 11 -2 0 -17 3 -16 26 10 18 22 22 24 14 7 -6 -13 -7 -22
-1 -22 5 0 11 6 14 13 2 6 7 9 11 6 15 -14 -26 -39 -55 -34 -28 5 -29 5 -12
-13 10 -10 20 -15 23 -12 7 9 43 24 52 22 4 -1 4 6 1 16 -6 15 -5 16 13 2 18
-14 18 -14 5 2 -11 15 -11 19 3 24 9 3 16 11 16 16 0 7 -5 6 -13 -1 -8 -6 -18
-7 -22 -3 -5 4 -5 1 -1 -5 4 -7 5 -13 2 -13 -3 0 -10 9 -16 21 -10 18 -10 19
8 10 14 -8 22 -6 35 9 11 13 12 20 4 24 -8 3 -8 5 -1 5 6 1 18 -7 25 -16 12
-14 12 -16 0 -8 -10 6 -12 4 -6 -5 5 -9 4 -11 -3 -6 -8 5 -10 1 -5 -9 5 -14 8
-14 15 -3 7 9 9 7 5 -8 -2 -12 1 -21 8 -21 10 0 11 7 4 23 -6 18 -4 26 7 32
13 7 14 13 5 30 -15 28 -14 35 3 29 8 -3 20 1 28 10 11 14 10 15 -12 8 -23 -7
-23 -7 -7 9 9 10 15 22 12 27 -4 5 -1 9 5 9 7 0 10 -7 7 -15 -4 -8 -2 -17 3
-20 6 -4 10 -2 10 3 0 6 7 13 16 16 14 5 15 4 4 -9 -7 -8 -8 -15 -2 -15 12 0
24 29 17 40 -3 5 -12 7 -19 4 -7 -3 -16 2 -20 12 -5 14 -4 15 9 4 12 -10 15
-10 15 1 0 11 2 11 8 1 7 -10 13 -8 26 7 17 18 17 20 -1 30 -17 10 -17 10 0
11 9 0 17 -5 17 -12 0 -6 9 -3 20 7 11 10 20 23 20 29 0 6 -5 5 -12 -2 -7 -7
-16 -12 -22 -12 -5 0 -1 6 9 14 11 8 23 12 27 9 5 -2 11 2 14 11 3 8 12 12 20
9 8 -3 11 -9 8 -14 -3 -5 -9 -7 -14 -4 -12 7 -32 -30 -22 -40 4 -5 1 -5 -7 0
-10 6 -12 4 -6 -5 6 -9 4 -11 -5 -5 -9 6 -11 4 -5 -5 6 -9 4 -11 -5 -5 -9 6
-11 4 -5 -5 5 -7 4 -11 -1 -8 -12 8 -29 -12 -30 -37 -1 -11 -5 -29 -9 -40 -4
-13 -1 -11 8 5 9 14 18 24 21 23 15 -7 19 -2 8 9 -18 18 -14 32 5 17 12 -10
15 -11 9 -1 -10 16 11 42 29 36 7 -3 16 -1 20 5 4 7 -1 8 -12 4 -14 -5 -16 -3
-6 7 6 7 9 18 6 26 -3 9 2 12 17 9 13 -2 20 -2 16 2 -3 3 -1 12 5 20 9 10 8
17 -1 28 -7 8 -9 15 -4 15 5 0 0 7 -10 15 -11 8 -15 15 -9 15 7 0 14 -4 18
-10 3 -5 12 -7 20 -3 8 3 15 0 15 -7 0 -6 -4 -9 -9 -5 -5 3 -13 0 -17 -6 -4
-8 -3 -9 4 -5 7 4 12 2 12 -3 0 -6 4 -11 9 -11 4 0 7 8 6 17 -2 27 -16 53 -27
53 -5 0 -6 -4 -3 -10 4 -6 -1 -7 -11 -3 -11 4 -13 8 -6 11 7 2 10 7 8 11 -3 4
5 7 17 6 12 -1 22 -7 22 -12 0 -6 4 -15 9 -20 5 -4 6 -3 3 3 -4 7 0 15 8 18 8
3 15 9 14 13 -3 20 2 34 10 28 5 -3 13 0 17 6 4 7 3 9 -4 5 -6 -3 -13 -2 -17
4 -3 5 -1 10 5 10 6 0 8 5 5 10 -3 6 2 10 12 10 15 0 16 2 3 10 -8 5 -15 20
-15 33 -1 14 -7 32 -14 41 -8 9 -11 19 -7 23 3 3 6 1 6 -6 0 -7 5 -9 10 -6 17
10 -8 34 -30 30 -11 -2 -22 0 -24 4 -6 10 35 8 51 -2 6 -4 14 -3 18 3 3 5 1
10 -6 10 -9 0 -9 3 0 14 10 11 7 17 -11 30 -12 9 -18 16 -12 16 5 0 15 -5 22
-12 18 -18 15 -4 -9 39 -11 21 -14 30 -6 20 8 -10 18 -14 21 -9 3 5 2 12 -1
16 -11 10 -12 37 -2 30 5 -3 9 0 9 5 0 6 -8 11 -17 11 -10 0 -14 4 -8 8 15 11
17 32 2 32 -8 0 -8 3 2 9 15 9 32 8 64 -4 10 -4 17 -3 17 5 0 6 -4 9 -9 6 -5
-3 -20 3 -32 15 -21 18 -22 20 -4 15 17 -5 18 -4 5 7 -20 16 -24 38 -8 48 7 4
10 10 8 13 -3 2 -16 -4 -30 -16 -14 -11 -20 -17 -13 -14 6 4 15 1 19 -6 4 -7
4 -10 -1 -6 -15 14 -46 -12 -40 -33 4 -10 2 -19 -3 -19 -4 0 -8 13 -8 29 0 17
3 28 8 25 4 -3 9 0 9 5 1 6 2 17 3 24 1 6 -5 17 -14 24 -8 6 -11 15 -7 20 11
11 38 -27 30 -41 -4 -6 1 -5 10 3 21 17 23 45 2 37 -18 -6 -19 -1 -5 24 9 17
8 18 -7 13 -16 -6 -16 -5 -5 10 8 9 12 22 9 29 -3 8 -6 6 -6 -5 -1 -10 -6 -15
-11 -12 -6 4 -8 11 -5 16 13 20 -7 30 -26 13 -18 -16 -17 -34 2 -34 6 0 8 4 5
8 -2 4 0 14 5 22 7 11 8 7 5 -13 -3 -19 -1 -25 7 -21 7 4 9 4 5 -1 -4 -4 -3
-14 3 -21 8 -9 6 -12 -8 -9 -10 2 -22 4 -28 4 -5 1 -3 6 5 11 13 9 13 10 0 11
-8 1 -18 1 -22 0 -9 -1 -4 20 10 45 6 12 8 25 4 29 -4 5 0 6 9 3 27 -10 10 38
-18 51 -21 9 -23 14 -13 26 10 12 10 15 0 15 -8 0 -11 3 -8 6 5 4 -37 54 -46
54 -1 0 -3 -7 -3 -15 0 -8 4 -12 8 -9 4 2 6 -4 4 -14 -4 -24 10 -49 19 -33 4
6 2 11 -4 11 -6 0 -8 5 -4 11 5 8 10 6 16 -5 6 -11 4 -21 -6 -32 -21 -21 -20
-27 4 -21 11 3 18 2 15 -3 -3 -4 3 -7 12 -6 9 0 18 -6 21 -14 4 -12 3 -13 -10
-3 -12 10 -15 10 -15 -2 0 -8 5 -12 10 -8 5 3 3 -5 -3 -18 -18 -34 -24 -38
-15 -10 6 18 4 22 -6 15 -12 -6 -12 -5 0 9 12 15 10 18 -10 26 -14 4 -24 16
-24 27 0 13 -6 18 -19 16 -18 -3 -18 -2 -2 13 9 9 13 22 9 28 -4 7 -9 4 -14
-9 -5 -14 -8 -15 -8 -3 -1 8 4 20 10 26 8 8 8 13 0 17 -6 4 -11 2 -11 -3 0 -6
-5 -11 -11 -11 -5 0 -7 5 -4 10 3 6 0 10 -7 10 -9 0 -9 3 2 10 13 9 7 14 -12
11 -5 0 -8 3 -8 8 0 6 9 9 19 8 11 0 18 -4 15 -8 -2 -4 3 -12 10 -18 9 -8 16
-8 20 -2 4 5 2 12 -3 16 -6 3 -8 12 -4 20 6 18 -8 20 -26 3 -11 -11 -12 -9 -6
10 6 21 -2 27 -28 23 -5 -1 -6 3 -2 9 4 6 16 8 28 5 13 -3 8 2 -11 13 -18 10
-29 21 -25 25 4 5 -1 5 -11 1 -13 -5 -14 -9 -6 -14 7 -5 9 -13 5 -20 -5 -9 -4
-11 3 -6 8 5 10 1 5 -10 -5 -14 -3 -16 11 -11 11 5 15 3 10 -5 -5 -7 -3 -8 6
-3 8 5 11 4 6 -3 -4 -6 -14 -8 -23 -5 -11 4 -14 3 -9 -5 5 -8 1 -10 -10 -5
-11 4 -13 8 -6 11 8 2 7 10 -4 28 -9 13 -13 24 -9 24 5 0 0 10 -11 22 -10 12
-13 18 -6 14 6 -4 12 -3 12 2 0 4 -16 14 -35 22 -32 13 -40 21 -36 43 1 7 -14
11 -37 8 -7 -1 -15 5 -18 13 -3 9 -10 13 -15 10 -5 -3 -9 0 -9 5 0 6 4 11 8
11 5 0 9 7 9 15 0 10 -6 13 -19 9 -10 -3 -18 0 -18 6 0 6 -4 9 -8 6 -18 -11
-30 9 -17 27 8 12 15 14 20 8 3 -6 1 -11 -4 -11 -6 0 -11 -5 -11 -11 0 -8 6
-7 17 2 14 12 16 12 8 0 -6 -10 -4 -12 5 -6 9 6 11 4 5 -4 -6 -10 -3 -11 13
-2 29 15 34 14 24 -6 -4 -10 -7 -24 -6 -30 1 -7 2 -17 3 -23 0 -5 5 -10 10
-10 5 0 7 10 3 22 -3 14 -2 19 7 14 6 -4 9 -11 6 -16 -3 -5 4 -14 15 -20 11
-6 19 -15 17 -19 -1 -5 3 -10 8 -12 6 -1 15 -9 22 -18 7 -9 13 -12 13 -8 0 4
9 3 21 -3 17 -10 18 -14 7 -28 -9 -11 -10 -14 -1 -8 7 4 18 16 24 28 8 14 8
18 0 14 -6 -4 -19 -2 -28 3 -10 6 -14 11 -9 11 6 0 0 9 -12 21 -12 11 -20 24
-17 29 3 5 -9 7 -26 5 -25 -4 -29 -2 -19 10 6 7 20 12 31 10 11 -2 17 0 14 5
-6 9 -24 8 -42 -3 -6 -4 -14 -3 -17 2 -4 5 -3 11 1 14 5 2 2 2 -5 1 -7 -2 -12
4 -10 14 2 12 -4 17 -20 17 -13 0 -30 8 -37 19 -8 10 -18 15 -24 12 -5 -4 -12
-2 -16 4 -3 5 -1 10 6 10 7 0 9 3 6 7 -4 3 -2 11 3 18 7 8 5 12 -5 12 -8 0
-13 -3 -10 -5 3 -3 -4 -12 -15 -19 -17 -12 -24 -12 -35 -3 -10 8 -15 9 -15 2
0 -6 8 -15 18 -21 15 -9 15 -10 -5 -8 -12 0 -20 4 -18 7 6 10 -24 50 -37 50
-6 0 -4 -8 6 -19 14 -16 15 -20 2 -30 -10 -8 -16 -9 -21 -1 -4 6 -3 10 2 9 20
-3 25 2 13 16 -7 8 -17 12 -24 8 -6 -3 -6 0 2 8 17 18 15 34 -3 19 -10 -9 -15
-9 -15 -1 0 6 5 11 10 11 6 0 10 5 10 12 0 6 -3 8 -7 5 -3 -4 -13 -1 -21 6
-13 10 -14 8 -8 -13 l7 -25 -14 23 c-7 12 -17 19 -22 15 -5 -4 -4 -1 3 9 10
12 10 18 1 24 -8 4 -9 3 -5 -4 4 -7 2 -12 -3 -12 -13 0 -14 10 -2 28 6 10 10
10 20 -2 7 -8 10 -20 7 -25 -4 -6 3 -8 17 -5 18 3 27 -2 35 -19 9 -18 11 -19
11 -4 1 10 6 15 11 12 6 -3 10 -1 10 5 0 6 -6 10 -13 8 -21 -5 -89 41 -81 55
6 9 5 9 -7 0 -11 -9 -19 -9 -26 -2 -8 8 -13 7 -18 -2 -6 -8 -4 -10 5 -4 9 6
11 4 5 -5 -6 -9 -4 -11 4 -5 10 6 11 3 2 -13 -14 -27 -28 -35 -28 -17 0 8 4
12 9 9 4 -3 8 -1 8 4 0 17 -13 21 -34 11 -20 -10 -20 -9 -2 5 19 15 32 91 14
79 -5 -3 -7 -12 -4 -20 4 -11 2 -13 -9 -10 -8 4 -17 1 -21 -5 -4 -7 -3 -8 4
-4 7 4 12 2 12 -4 0 -6 5 -8 12 -4 7 4 8 3 4 -4 -4 -6 -14 -8 -23 -5 -10 4
-14 2 -9 -5 3 -6 1 -14 -5 -18 -8 -5 -9 -3 -4 6 6 10 3 12 -11 7 -18 -7 -18
-6 -2 6 10 8 15 17 11 20 -3 4 -13 1 -21 -6 -11 -8 -14 -8 -9 0 4 6 2 13 -5
15 -9 3 -8 11 5 31 24 37 21 45 -4 13 -11 -14 -25 -23 -31 -20 -7 5 -9 -2 -6
-19 3 -15 1 -24 -3 -21 -5 3 -9 12 -9 20 0 8 -7 17 -15 20 -8 4 -15 12 -15 20
0 8 -5 14 -11 14 -5 0 -7 -4 -4 -10 3 -6 -1 -7 -10 -3 -13 5 -14 7 -3 14 7 5
9 9 3 10 -5 1 -14 2 -20 3 -16 2 -18 20 -3 24 9 2 8 0 -2 -7 -12 -8 -11 -10 8
-8 12 0 22 5 22 10 0 4 5 5 11 1 8 -5 8 -9 -1 -14 -9 -6 -6 -10 8 -15 12 -3
21 -11 19 -17 -1 -6 5 -13 13 -15 12 -4 12 -3 2 5 -11 7 -11 10 3 15 9 4 13 3
10 -2 -3 -5 -1 -12 5 -16 13 -8 13 11 0 35 -6 11 -16 17 -24 14 -7 -3 -18 2
-25 10 -7 8 -20 12 -29 9 -15 -6 -15 -5 -3 10 8 10 11 20 7 24 -3 3 -6 1 -6
-5 0 -6 -13 -18 -30 -27 -19 -10 -27 -20 -24 -30 4 -8 1 -15 -5 -15 -6 0 -10
5 -8 12 1 8 -9 12 -26 12 -26 -1 -27 0 -11 17 22 24 7 25 -20 2 -20 -17 -20
-17 -7 0 11 14 11 17 -2 17 -8 0 -17 -6 -20 -12 -2 -7 -8 0 -12 15 -5 19 -12
26 -22 23 -14 -6 -35 32 -26 47 2 4 2 7 -1 7 -3 0 -7 -3 -7 -7z m15 -52 c3 -5
-1 -14 -8 -20 -12 -10 -14 -9 -11 6 2 10 4 19 4 21 2 5 10 2 15 -7z m-66 -21
c-7 -10 -14 -17 -17 -15 -4 4 18 35 25 35 2 0 -1 -9 -8 -20z m89 6 c-3 -8 -1
-17 6 -19 7 -2 8 -8 3 -13 -5 -5 -11 -4 -13 4 -3 6 -9 9 -15 6 -5 -3 -4 3 4
15 15 24 23 28 15 7z m-227 -6 c3 -1 8 -2 13 -1 11 2 8 -9 -7 -25 -9 -9 -17
-10 -21 -4 -3 5 -1 10 5 10 6 0 8 5 4 12 -5 8 -13 4 -27 -13 l-20 -24 8 25 c7
22 6 23 -8 12 -9 -8 -21 -11 -26 -8 -5 4 -17 -4 -25 -16 -12 -17 -16 -19 -16
-6 0 14 20 29 42 32 3 1 10 4 14 9 6 6 45 4 64 -3z m-273 -42 c2 -16 0 -16
-13 -4 -17 18 -18 23 -1 23 7 0 14 -9 14 -19z m33 18 c0 -3 -4 -8 -10 -11 -5
-3 -10 -1 -10 4 0 6 5 11 10 11 6 0 10 -2 10 -4z m24 -9 c-5 -13 -44 -41 -44
-31 0 5 41 43 47 44 1 0 0 -6 -3 -13z m309 -2 c4 -8 3 -16 -1 -19 -4 -3 -9 4
-9 15 -2 23 3 25 10 4z m-159 -3 c2 -4 -4 -8 -14 -8 -10 0 -16 4 -14 8 3 4 9
8 14 8 5 0 11 -4 14 -8z m61 -20 c-3 -3 -11 0 -18 7 -9 10 -8 11 6 5 10 -3 15
-9 12 -12z m485 8 c0 -5 -5 -10 -11 -10 -5 0 -7 5 -4 10 3 6 8 10 11 10 2 0 4
-4 4 -10z m-960 -20 c0 -5 -5 -10 -11 -10 -5 0 -7 5 -4 10 3 6 8 10 11 10 2 0
4 -4 4 -10z m417 -5 c0 -8 -4 -12 -9 -9 -5 3 -6 10 -3 15 9 13 12 11 12 -6z
m-292 -15 c-3 -5 -12 -10 -18 -10 -7 0 -6 4 3 10 19 12 23 12 15 0z m769 1 c3
-4 -4 -17 -17 -27 -22 -19 -22 -19 -4 2 9 11 14 24 10 27 -3 4 -4 7 0 7 3 0 8
-4 11 -9z m-972 -34 c-6 -7 -8 -18 -4 -23 4 -5 0 -3 -8 5 -11 10 -12 15 -2 18
6 3 12 9 12 14 0 6 -5 7 -12 3 -7 -5 -8 -3 -3 5 5 9 10 10 18 2 7 -7 7 -14 -1
-24z m75 11 c-3 -8 -6 -5 -6 6 -1 11 2 17 5 13 3 -3 4 -12 1 -19z m920 -3 c0
-8 -4 -12 -9 -9 -5 3 -6 10 -3 15 9 13 12 11 12 -6z m-937 -9 c0 -3 -4 -8 -10
-11 -5 -3 -10 -1 -10 4 0 6 5 11 10 11 6 0 10 -2 10 -4z m-229 -43 c-10 -4
-11 -7 -1 -13 15 -9 6 -26 -22 -41 -15 -8 -19 -8 -14 0 4 6 2 11 -3 11 -6 0
-1 11 11 25 12 14 26 25 32 24 6 0 5 -3 -3 -6z m59 -9 c0 -2 -9 -4 -20 -4 -11
0 -20 4 -20 9 0 5 9 7 20 4 11 -3 20 -7 20 -9z m1210 1 c0 -2 -9 -3 -19 -2
-11 0 -18 5 -15 9 4 6 34 0 34 -7z m96 -50 c-1 -8 -5 -17 -8 -21 -5 -4 -4 16
1 34 3 9 9 -1 7 -13z m-1436 -12 c-1 -15 -28 -43 -41 -43 -11 0 -11 2 1 10 8
5 16 14 16 20 2 18 4 20 14 20 6 0 10 -3 10 -7z m75 -2 c3 -5 2 -12 -3 -15 -5
-3 -9 1 -9 9 0 17 3 19 12 6z m-50 -31 c3 -6 -1 -7 -9 -4 -18 7 -21 14 -7 14
6 0 13 -4 16 -10z m-15 -15 c0 -2 -9 -9 -19 -15 -14 -7 -22 -7 -27 2 -4 6 -3
8 2 5 6 -3 16 -2 24 4 17 10 20 11 20 4z m1490 -5 c0 -5 -2 -10 -4 -10 -3 0
-8 5 -11 10 -3 6 -1 10 4 10 6 0 11 -4 11 -10z m137 -7 c-4 -3 -2 -12 4 -19 7
-8 6 -14 -2 -20 -7 -4 -9 -3 -5 4 3 5 1 12 -6 14 -11 4 -3 28 9 28 4 0 3 -3 0
-7z m-1687 -48 c-14 -17 -30 -20 -30 -4 0 5 5 7 10 4 6 -3 13 1 16 10 4 9 9
14 12 11 3 -3 -1 -12 -8 -21z m24 -23 c2 -4 -5 -9 -17 -9 -17 -2 -19 0 -7 7
18 12 18 12 24 2z m-49 -40 c-3 -3 -11 0 -18 7 -9 10 -8 11 6 5 10 -3 15 -9
12 -12z m1891 -37 c12 -13 19 -27 14 -30 -4 -3 -11 2 -14 11 -3 9 -11 12 -18
8 -7 -4 -10 -4 -6 1 4 4 3 14 -3 22 -20 24 3 14 27 -12z m-1936 -6 c0 -5 -4
-7 -10 -4 -9 6 -14 -8 -11 -28 1 -4 -8 -2 -19 5 -19 12 -19 13 3 25 27 15 37
16 37 2z m1881 -16 c13 -16 12 -17 -3 -4 -10 7 -18 15 -18 17 0 8 8 3 21 -13z
m-22 -27 c-3 -3 -11 5 -18 17 -13 21 -12 21 5 5 10 -10 16 -20 13 -22z m81
-26 c0 -6 -5 -10 -12 -10 -6 0 -8 3 -5 7 4 3 -1 12 -11 20 -15 13 -15 13 6 3
12 -6 22 -15 22 -20z m-2034 -15 c-3 -20 -16 -31 -16 -13 0 13 8 28 16 28 1 0
1 -7 0 -15z m108 6 c3 -5 -2 -15 -12 -22 -15 -12 -16 -12 -5 2 7 9 10 19 6 22
-3 4 -4 7 0 7 3 0 8 -4 11 -9z m1946 -15 c0 -2 -7 -7 -16 -10 -8 -3 -12 -2 -9
4 6 10 25 14 25 6z m-2020 -31 c11 -13 10 -14 -5 -9 -13 5 -16 4 -11 -4 4 -7
2 -12 -3 -12 -13 0 -13 3 -5 24 8 20 9 20 24 1z m50 -71 c0 -8 -19 -13 -24 -6
-3 5 1 9 9 9 8 0 15 -2 15 -3z m-60 -19 c-7 -8 -18 -15 -24 -15 -6 0 -2 7 8
15 25 19 32 19 16 0z m2065 -25 c3 -5 1 -10 -4 -10 -6 0 -11 5 -11 10 0 6 2
10 4 10 3 0 8 -4 11 -10z m-2057 -25 c-3 -3 -9 2 -12 12 -6 14 -5 15 5 6 7 -7
10 -15 7 -18z m2097 15 c-4 -6 -1 -19 6 -28 12 -16 12 -16 -5 0 -16 14 -15 38
0 38 3 0 2 -5 -1 -10z m42 -65 c0 -8 -4 -12 -9 -9 -5 3 -6 10 -3 15 9 13 12
11 12 -6z m-2147 -1 c0 -8 -19 -13 -24 -6 -3 5 1 9 9 9 8 0 15 -2 15 -3z m-50
-74 c0 -5 -4 -10 -10 -10 -5 0 -10 5 -10 10 0 6 5 10 10 10 6 0 10 -4 10 -10z
m2240 -10 c0 -5 -5 -10 -11 -10 -5 0 -7 5 -4 10 3 6 8 10 11 10 2 0 4 -4 4
-10z m-2210 -15 c-14 -17 -30 -20 -30 -4 0 5 4 8 9 4 5 -3 12 -1 16 5 3 5 9
10 12 10 3 0 0 -7 -7 -15z m-86 -43 c3 -5 -1 -9 -9 -9 -8 0 -12 4 -9 9 3 4 7
8 9 8 2 0 6 -4 9 -8z m2346 -15 c0 -2 -10 -12 -22 -23 l-23 -19 19 23 c18 21
26 27 26 19z m-2277 -74 c-3 -7 -6 -13 -8 -13 -2 0 -5 6 -8 13 -3 8 1 14 8 14
7 0 11 -6 8 -14z m2271 9 c2 -4 -4 -8 -14 -8 -10 0 -16 4 -14 8 3 4 9 8 14 8
5 0 11 -4 14 -8z m-2238 -59 c-6 -6 -36 9 -36 18 0 5 9 4 20 -3 10 -7 18 -14
16 -15z m2306 20 c-10 -4 -9 -8 3 -17 15 -11 15 -12 -2 -12 -11 0 -20 8 -20
18 -1 11 5 18 15 17 11 0 13 -2 4 -6z m-2319 -50 c-5 -12 -3 -14 7 -8 9 6 11
4 5 -4 -5 -9 -11 -9 -17 -3 -6 6 -7 15 -4 21 11 17 16 13 9 -6z m-56 -38 c0
-8 -4 -12 -9 -9 -4 3 -8 9 -8 15 0 5 4 9 8 9 5 0 9 -7 9 -15z m120 -20 c0 -8
-4 -12 -9 -9 -5 3 -6 10 -3 15 9 13 12 11 12 -6z m2203 11 c0 -2 -7 -7 -16
-10 -8 -3 -12 -2 -9 4 6 10 25 14 25 6z m-2200 -109 c0 -4 -7 -7 -16 -5 -10 2
-19 -3 -22 -11 -2 -8 0 -11 6 -7 14 8 22 -17 11 -35 -17 -26 -8 -34 11 -10 11
13 20 19 20 14 0 -6 -8 -17 -19 -27 -17 -16 -20 -15 -44 18 -22 28 -24 35 -11
40 8 3 12 11 8 17 -4 8 -3 9 4 5 7 -4 12 -3 12 3 0 5 9 9 20 8 11 -1 20 -5 20
-10z m2236 -19 c4 -7 3 -8 -4 -4 -7 4 -12 2 -12 -5 0 -7 -3 -10 -6 -6 -6 5 3
27 11 27 2 0 7 -5 11 -12z m-2203 -25 c-3 -7 -6 -13 -8 -13 -2 0 -5 6 -8 13
-3 8 1 14 8 14 7 0 11 -6 8 -14z m47 -49 c0 -8 -19 -13 -24 -6 -3 5 1 9 9 9 8
0 15 -2 15 -3z m2146 -25 c3 -6 -2 -18 -12 -27 -17 -16 -17 -16 -5 1 8 9 11
21 7 24 -4 4 -11 1 -16 -7 -6 -8 -10 -10 -10 -4 0 23 24 32 36 13z m-2136 -43
c-7 -7 -14 -6 -22 3 -11 10 -9 11 7 5 18 -7 19 -6 5 12 -14 18 -14 18 3 5 12
-10 15 -17 7 -25z m-76 -26 c-6 -5 -24 21 -24 34 0 6 6 1 14 -10 8 -10 12 -21
10 -24z m2221 18 c-2 -13 -6 -34 -10 -48 -4 -14 -7 -31 -7 -37 -2 -18 -15 -16
-22 2 -3 9 -12 12 -23 8 -10 -3 -15 -3 -11 2 4 4 2 15 -5 24 -6 8 3 5 21 -8
17 -12 32 -18 32 -12 0 5 -8 15 -17 20 -10 6 -12 11 -5 11 6 0 11 3 11 8 -3
19 2 33 10 28 5 -3 11 1 15 9 8 22 15 18 11 -7z m-2061 -114 c3 -8 2 -12 -4
-9 -6 3 -10 10 -10 16 0 14 7 11 14 -7z m-25 -20 c4 3 8 -5 8 -17 2 -20 1 -20
-8 -4 -6 9 -14 17 -20 17 -5 0 -2 -11 6 -24 13 -19 14 -26 3 -32 -7 -4 -10 -4
-6 1 4 4 -3 16 -15 26 -22 18 -22 18 -2 33 11 8 22 10 23 5 2 -5 7 -7 11 -5z
m1978 -22 c-9 -2 -14 -8 -11 -14 4 -7 2 -8 -4 -4 -17 11 -3 36 16 28 16 -6 15
-7 -1 -10z m33 -34 c0 -6 -6 -5 -15 2 -8 7 -15 14 -15 16 0 2 7 1 15 -2 8 -4
15 -11 15 -16z m-1935 2 c3 -6 -1 -7 -9 -4 -18 7 -21 14 -7 14 6 0 13 -4 16
-10z m1833 -2 c-2 -7 3 -12 10 -10 8 1 11 -2 7 -8 -5 -8 -11 -8 -21 1 -7 6
-11 15 -8 20 8 13 14 11 12 -3z m47 2 c3 -6 -1 -7 -9 -4 -18 7 -21 14 -7 14 6
0 13 -4 16 -10z m-1854 -73 c-10 -9 -11 -8 -5 6 3 10 9 15 12 12 3 -3 0 -11
-7 -18z m1769 9 c0 -2 -8 -10 -17 -17 -16 -13 -17 -12 -4 4 13 16 21 21 21 13z
m-1725 -24 c-3 -3 -11 0 -18 7 -9 10 -8 11 6 5 10 -3 15 -9 12 -12z m-4 -47
c14 9 11 -5 -5 -20 -12 -12 -15 -12 -19 -1 -3 8 -3 25 1 38 l7 23 3 -23 c2
-12 8 -20 13 -17z m1659 -1 c0 -8 -19 -13 -24 -6 -3 5 1 9 9 9 8 0 15 -2 15
-3z m-1572 -49 c-3 -3 -9 2 -12 12 -6 14 -5 15 5 6 7 -7 10 -15 7 -18z m1499
10 c0 -8 -4 -12 -9 -9 -5 3 -6 10 -3 15 9 13 12 11 12 -6z m-1523 -16 c-2 -4
2 -9 8 -12 7 -2 -4 -4 -25 -3 -31 0 -35 2 -23 11 17 13 48 16 40 4z m66 -9 c0
-5 -2 -10 -4 -10 -3 0 -8 5 -11 10 -3 6 -1 10 4 10 6 0 11 -4 11 -10z m1480
-10 c0 -5 -5 -10 -11 -10 -5 0 -7 5 -4 10 3 6 8 10 11 10 2 0 4 -4 4 -10z m33
-34 c-3 -4 -9 -2 -14 5 -13 22 -11 31 5 17 8 -7 12 -17 9 -22z m-1468 4 c3 -6
-1 -7 -9 -4 -18 7 -21 14 -7 14 6 0 13 -4 16 -10z m1330 -8 c-3 -3 -11 0 -18
7 -9 10 -8 11 6 5 10 -3 15 -9 12 -12z m-1280 -12 c3 -5 1 -10 -4 -10 -6 0
-11 5 -11 10 0 6 2 10 4 10 3 0 8 -4 11 -10z m1295 -15 c-14 -17 -30 -20 -30
-4 0 5 5 7 10 4 6 -3 13 1 16 10 4 9 9 14 12 11 3 -3 -1 -12 -8 -21z m-1336 0
c3 -8 1 -15 -4 -15 -6 0 -10 7 -10 15 0 8 2 15 4 15 2 0 6 -7 10 -15z m1266
-5 c0 -5 -5 -10 -11 -10 -5 0 -7 5 -4 10 3 6 8 10 11 10 2 0 4 -4 4 -10z
m-1123 -47 c0 -9 -4 -10 -14 -2 -7 6 -13 12 -13 14 0 1 6 2 13 2 8 0 14 -6 14
-14z m834 0 c13 -16 12 -17 -3 -4 -17 13 -22 21 -14 21 2 0 10 -8 17 -17z
m230 -10 c13 -17 13 -17 -6 -3 -11 8 -22 16 -24 17 -2 2 0 3 6 3 6 0 17 -8 24
-17z m-741 3 c0 -2 -7 -7 -16 -10 -8 -3 -12 -2 -9 4 6 10 25 14 25 6z m117
-28 c4 -28 -6 -18 -12 12 -2 12 -1 20 2 16 4 -4 8 -16 10 -28z m263 22 c0 -5
-5 -10 -11 -10 -5 0 -7 5 -4 10 3 6 8 10 11 10 2 0 4 -4 4 -10z m216 -19 c-9
-14 -26 -14 -26 0 0 5 5 7 12 3 8 -5 9 -1 4 12 -5 14 -4 16 5 7 6 -6 8 -16 5
-22z m-733 -14 c-3 -5 4 -6 16 -2 12 4 21 2 21 -4 0 -6 3 -10 8 -8 4 1 8 -2
10 -8 3 -14 -19 -13 -44 2 -11 7 -23 12 -25 11 -2 -2 -1 1 3 6 3 5 4 16 1 25
-4 13 -3 14 5 1 6 -8 8 -18 5 -23z m59 26 c-6 -3 -9 -9 -6 -15 4 -6 -2 -5 -15
1 -27 15 -27 16 7 17 15 1 21 -1 14 -3z m352 -18 c-4 -8 -8 -15 -10 -15 -2 0
-4 7 -4 15 0 8 4 15 10 15 5 0 7 -7 4 -15z m76 0 c0 -2 -6 -5 -13 -8 -8 -3
-14 1 -14 8 0 7 6 11 14 8 7 -3 13 -6 13 -8z m110 5 c0 -5 -5 -10 -11 -10 -5
0 -7 5 -4 10 3 6 8 10 11 10 2 0 4 -4 4 -10z m77 -12 c-3 -8 -6 -5 -6 6 -1 11
2 17 5 13 3 -3 4 -12 1 -19z m72 -4 c-12 -15 -12 -16 8 -10 28 9 39 -10 13
-24 -13 -7 -26 -7 -38 -1 -13 7 -23 6 -30 -1 -18 -18 -27 -1 -14 24 l12 23 -6
-24 -6 -23 31 23 c17 12 31 27 31 33 0 5 3 6 6 3 4 -4 1 -14 -7 -23z m112 -4
c6 0 7 -5 4 -11 -4 -6 -13 -8 -20 -5 -8 3 -15 0 -18 -7 -2 -7 -4 2 -4 20 0 27
2 29 14 17 8 -8 19 -14 24 -14z m-1094 -7 c0 -15 -19 -12 -24 3 -2 6 3 11 10
11 8 0 14 -6 14 -14z m757 1 c3 -8 11 -12 17 -8 6 3 15 0 20 -7 7 -11 9 -11 9
3 0 9 -6 19 -12 21 -10 4 -10 6 0 6 14 1 33 -39 25 -52 -3 -5 -14 0 -25 10
-24 21 -21 21 -41 5 -10 -9 -17 -10 -22 -2 -3 6 -11 8 -16 5 -5 -4 -9 -1 -9 4
0 6 7 11 15 11 8 0 15 -5 15 -11 0 -5 5 -7 10 -4 8 5 7 11 -1 21 -7 8 -7 14
-1 14 5 0 13 -7 16 -16z m-664 -8 c0 -3 -4 -8 -10 -11 -5 -3 -10 -1 -10 4 0 6
5 11 10 11 6 0 10 -2 10 -4z m90 -7 c0 -15 -18 -18 -34 -6 -16 12 -15 13 8 13
14 0 26 -3 26 -7z"/>
<path d="M776 2315 c-3 -8 -1 -15 4 -15 13 0 22 18 11 24 -5 3 -11 -1 -15 -9z"/>
<path d="M530 1241 c0 -5 8 -15 17 -22 11 -10 14 -10 9 -1 -4 7 -2 12 6 12 9
0 9 3 -2 10 -19 12 -30 13 -30 1z"/>
<path d="M2805 1092 c-12 -8 -13 -28 -2 -36 4 -3 5 -3 2 0 -2 4 0 15 6 25 11
21 9 23 -6 11z"/>
<path d="M2124 518 c9 -5 23 -5 32 0 12 6 7 9 -16 9 -23 0 -28 -3 -16 -9z"/>
<path d="M1816 2581 c-3 -5 2 -15 12 -22 15 -12 16 -12 5 2 -7 9 -10 19 -6 22
3 4 4 7 0 7 -3 0 -8 -4 -11 -9z"/>
<path d="M1855 2569 c-4 -6 -5 -12 -2 -15 2 -3 7 2 10 11 7 17 1 20 -8 4z"/>
<path d="M1359 2568 c-5 -18 -6 -38 -1 -34 7 8 12 36 6 36 -2 0 -4 -1 -5 -2z"/>
<path d="M1480 2566 c0 -2 8 -10 18 -17 15 -13 16 -12 3 4 -13 16 -21 21 -21
13z"/>
<path d="M1691 2554 c0 -11 3 -14 6 -6 3 7 2 16 -1 19 -3 4 -6 -2 -5 -13z"/>
<path d="M1789 2553 c0 -5 -2 -15 -4 -23 -2 -12 5 -15 28 -14 40 3 51 -4 36
-22 -10 -12 -8 -14 9 -11 25 4 52 26 51 41 0 7 -2 6 -6 -1 -2 -7 -9 -13 -14
-13 -6 0 -7 6 -3 13 6 9 4 9 -8 -1 -10 -8 -19 -9 -22 -3 -4 5 3 13 15 16 11 4
18 9 16 12 -3 2 -15 -1 -27 -7 -16 -9 -25 -8 -38 2 -11 9 -14 10 -8 1 4 -8 1
-13 -8 -13 -10 0 -13 6 -10 15 4 8 3 15 0 15 -3 0 -6 -3 -7 -7z"/>
<path d="M1398 2533 c7 -3 16 -2 19 1 4 3 -2 6 -13 5 -11 0 -14 -3 -6 -6z"/>
<path d="M1976 2498 c3 -4 16 -7 29 -6 30 3 23 11 -9 13 -14 0 -22 -3 -20 -7z"/>
<path d="M2035 2471 c-3 -5 -2 -12 3 -15 5 -3 9 1 9 9 0 17 -3 19 -12 6z"/>
<path d="M1106 2462 c-2 -4 4 -8 14 -8 10 0 16 4 14 8 -3 4 -9 8 -14 8 -5 0
-11 -4 -14 -8z"/>
<path d="M935 2440 c-3 -5 -1 -10 4 -10 6 0 11 5 11 10 0 6 -2 10 -4 10 -3 0
-8 -4 -11 -10z"/>
<path d="M2065 2420 c-10 -11 -15 -21 -12 -21 24 -5 33 -3 45 8 6 6 12 15 12
19 0 5 -5 3 -12 -4 -17 -17 -33 -15 -18 3 19 22 6 18 -15 -5z"/>
<path d="M845 2420 c-3 -6 1 -7 9 -4 18 7 21 14 7 14 -6 0 -13 -4 -16 -10z"/>
<path d="M2152 2400 c0 -14 2 -19 5 -12 2 6 2 18 0 25 -3 6 -5 1 -5 -13z"/>
<path d="M2179 2408 c-5 -18 -6 -38 -1 -34 7 8 12 36 6 36 -2 0 -4 -1 -5 -2z"/>
<path d="M788 2373 c7 -3 16 -2 19 1 4 3 -2 6 -13 5 -11 0 -14 -3 -6 -6z"/>
<path d="M2240 2360 c-8 -5 -12 -12 -9 -15 4 -3 12 1 19 10 14 17 11 19 -10 5z"/>
<path d="M2308 2283 c7 -3 16 -2 19 1 4 3 -2 6 -13 5 -11 0 -14 -3 -6 -6z"/>
<path d="M2277 2273 c-4 -6 2 -18 13 -28 11 -10 20 -15 20 -10 0 4 6 2 14 -4
10 -9 17 -7 27 6 13 16 12 17 -3 4 -20 -15 -25 -2 -6 17 8 8 9 12 1 12 -6 0
-14 -6 -16 -12 -4 -10 -8 -9 -16 2 -10 13 -11 13 -12 0 0 -10 -3 -9 -8 4 -4
12 -10 15 -14 9z"/>
<path d="M2426 2195 c4 -8 11 -15 16 -15 6 0 5 6 -2 15 -7 8 -14 15 -16 15 -2
0 -1 -7 2 -15z"/>
<path d="M595 2189 c-4 -6 -5 -12 -2 -15 2 -3 7 2 10 11 7 17 1 20 -8 4z"/>
<path d="M536 2097 c3 -10 9 -15 12 -12 3 3 0 11 -7 18 -10 9 -11 8 -5 -6z"/>
<path d="M521 2074 c0 -11 3 -14 6 -6 3 7 2 16 -1 19 -3 4 -6 -2 -5 -13z"/>
<path d="M495 2060 c-3 -5 -1 -10 4 -10 6 0 11 5 11 10 0 6 -2 10 -4 10 -3 0
-8 -4 -11 -10z"/>
<path d="M450 2020 c0 -5 5 -10 11 -10 5 0 7 5 4 10 -3 6 -8 10 -11 10 -2 0
-4 -4 -4 -10z"/>
<path d="M486 2003 c-6 -14 -5 -15 5 -6 7 7 10 15 7 18 -3 3 -9 -2 -12 -12z"/>
<path d="M522 2006 c7 -8 17 -12 22 -9 4 3 2 9 -5 14 -22 13 -31 11 -17 -5z"/>
<path d="M2634 1989 c1 -7 10 -13 19 -15 9 -1 15 2 11 7 -3 5 -9 7 -14 4 -4
-3 -11 0 -13 5 -3 6 -4 5 -3 -1z"/>
<path d="M457 1974 c-3 -3 -3 -13 0 -22 5 -11 3 -13 -7 -7 -9 5 -11 4 -6 -4
10 -16 25 -4 23 19 -1 22 -1 22 -10 14z"/>
<path d="M411 1927 c-13 -21 -12 -21 5 -5 10 10 16 20 13 22 -3 3 -11 -5 -18
-17z"/>
<path d="M433 1895 c0 -7 6 -11 14 -8 7 3 13 6 13 8 0 2 -6 5 -13 8 -8 3 -14
-1 -14 -8z"/>
<path d="M380 1886 c0 -2 8 -10 18 -17 15 -13 16 -12 3 4 -13 16 -21 21 -21
13z"/>
<path d="M479 1876 c9 -11 9 -16 0 -22 -7 -4 -9 -3 -6 3 4 6 0 13 -8 16 -10 4
-12 1 -8 -10 5 -13 3 -14 -18 -4 -22 11 -22 11 -6 -2 17 -14 17 -15 0 -22 -10
-5 -28 -8 -41 -8 -12 0 -20 -2 -17 -5 9 -9 45 -9 51 0 3 4 10 8 16 8 6 0 3
-10 -8 -22 -10 -12 -14 -18 -7 -15 6 4 14 3 17 -2 4 -5 -3 -12 -14 -16 -11 -3
-20 -12 -20 -18 0 -7 -4 -6 -10 3 -6 9 -10 10 -10 3 0 -20 18 -24 35 -7 9 9
19 13 23 10 7 -8 -55 -66 -71 -66 -6 0 -7 -3 -4 -6 4 -4 17 0 31 9 22 15 25
15 38 0 11 -14 11 -16 -4 -11 -9 4 -24 1 -34 -7 -16 -12 -15 -13 14 -12 32 2
35 5 35 39 0 14 5 16 24 12 24 -6 24 -5 13 16 -16 29 -20 69 -8 76 5 3 1 12
-9 20 -15 12 -15 13 -1 8 11 -4 21 2 28 16 8 15 8 20 1 16 -6 -4 -11 -2 -11 3
0 6 -5 11 -11 11 -8 0 -8 -4 0 -14z m-13 -74 c-2 -15 1 -35 6 -46 7 -12 7 -16
0 -12 -12 7 -34 -18 -24 -29 4 -5 1 -5 -6 -1 -11 7 -10 11 2 25 15 17 16 37 3
58 -4 6 -3 14 3 18 6 4 7 11 4 17 -4 6 -2 8 4 4 6 -3 9 -19 8 -34z"/>
<path d="M2710 1870 c13 -24 17 -25 17 -5 0 8 -6 16 -14 19 -11 4 -11 1 -3
-14z"/>
<path d="M2735 1841 c-3 -5 -2 -12 3 -15 5 -3 9 1 9 9 0 17 -3 19 -12 6z"/>
<path d="M2766 1798 c3 -5 10 -6 15 -3 13 9 11 12 -6 12 -8 0 -12 -4 -9 -9z"/>
<path d="M353 1753 c0 -9 4 -10 14 -2 7 6 13 12 13 14 0 1 -6 2 -13 2 -8 0
-14 -6 -14 -14z"/>
<path d="M2760 1766 c0 -2 7 -7 16 -10 8 -3 12 -2 9 4 -6 10 -25 14 -25 6z"/>
<path d="M375 1729 c-4 -6 -5 -12 -2 -15 2 -3 7 2 10 11 7 17 1 20 -8 4z"/>
<path d="M2835 1720 c3 -5 8 -10 11 -10 2 0 4 5 4 10 0 6 -5 10 -11 10 -5 0
-7 -4 -4 -10z"/>
<path d="M339 1673 c-13 -16 -12 -17 4 -4 9 7 17 15 17 17 0 8 -8 3 -21 -13z"/>
<path d="M364 1639 c-4 -7 -3 -9 4 -5 5 3 13 0 15 -6 4 -9 6 -10 6 -1 1 17
-16 25 -25 12z"/>
<path d="M2850 1600 c0 -5 5 -10 11 -10 5 0 7 5 4 10 -3 6 -8 10 -11 10 -2 0
-4 -4 -4 -10z"/>
<path d="M2874 1519 c-3 -6 -1 -16 5 -22 9 -9 10 -7 5 7 -6 15 -4 17 6 11 9
-5 11 -4 6 3 -9 15 -13 15 -22 1z"/>
<path d="M460 1501 c0 -6 4 -13 10 -16 6 -3 7 1 4 9 -7 18 -14 21 -14 7z"/>
<path d="M366 1485 c-11 -8 -15 -15 -9 -15 6 0 16 7 23 15 16 19 11 19 -14 0z"/>
<path d="M393 1443 c4 -3 1 -13 -6 -22 -11 -14 -10 -14 5 -2 16 12 16 31 1 31
-4 0 -3 -3 0 -7z"/>
<path d="M2845 1419 c2 -10 7 -24 10 -29 4 -6 2 -17 -5 -25 -8 -9 -8 -15 0
-20 8 -5 8 -11 -1 -21 -8 -9 -8 -18 -2 -26 12 -15 11 -67 -2 -87 -5 -10 -4
-12 3 -7 7 4 12 3 12 -3 0 -5 -8 -15 -17 -20 -12 -7 -13 -10 -4 -11 7 0 11 -6
8 -13 -3 -8 0 -14 6 -15 7 0 22 -3 35 -6 13 -3 20 -1 17 5 -4 5 -10 7 -14 5
-4 -3 -13 0 -21 5 -13 8 -13 10 0 19 11 7 11 10 2 10 -7 0 -10 5 -7 10 4 6 12
8 18 4 7 -3 5 0 -3 8 -8 7 -16 22 -18 33 -2 18 0 17 18 -5 17 -20 19 -21 11
-4 -7 15 -7 25 2 34 9 10 9 11 0 6 -7 -4 -17 2 -22 13 -16 29 -13 39 5 16 l16
-20 -4 20 c-2 11 2 19 9 18 6 -1 17 5 25 14 11 14 11 16 -2 8 -21 -13 -39 -15
-46 -4 -3 5 0 9 6 9 7 0 10 6 7 14 -3 7 0 20 6 27 10 11 9 11 -5 0 -11 -8 -18
-9 -18 -3 0 6 5 14 10 17 16 10 12 21 -14 33 -22 10 -24 9 -21 -9z m35 -14 c0
-12 -19 -12 -23 0 -4 9 -1 12 9 8 7 -3 14 -7 14 -8z m-6 -56 c-3 -5 -10 -7
-15 -3 -5 3 -7 10 -3 15 3 5 10 7 15 3 5 -3 7 -10 3 -15z m0 -27 c3 -5 -1 -9
-9 -9 -8 0 -12 4 -9 9 3 4 7 8 9 8 2 0 6 -4 9 -8z"/>
<path d="M415 1360 c3 -5 8 -10 11 -10 2 0 4 5 4 10 0 6 -5 10 -11 10 -5 0 -7
-4 -4 -10z"/>
<path d="M505 1310 c-4 -12 -11 -17 -18 -13 -7 4 -5 -2 3 -12 14 -17 13 -18
-2 -13 -17 7 -20 -14 -3 -29 4 -4 5 -3 2 3 -4 7 0 15 9 18 8 3 12 10 9 16 -3
5 1 10 9 10 22 0 28 16 12 29 -11 10 -16 8 -21 -9z"/>
<path d="M2913 1235 c0 -8 4 -12 9 -9 4 3 8 9 8 15 0 5 -4 9 -8 9 -5 0 -9 -7
-9 -15z"/>
<path d="M495 1223 c3 -3 -3 -16 -12 -27 -14 -15 -14 -18 -2 -8 9 6 18 9 22 6
3 -3 4 1 3 10 -1 8 -5 18 -9 21 -4 3 -5 2 -2 -2z"/>
<path d="M2896 1173 c-6 -14 -5 -15 5 -6 7 7 10 15 7 18 -3 3 -9 -2 -12 -12z"/>
<path d="M555 1149 c-4 -6 -5 -12 -2 -15 2 -3 7 2 10 11 7 17 1 20 -8 4z"/>
<path d="M2850 1120 c0 -5 5 -10 10 -10 6 0 10 5 10 10 0 6 -4 10 -10 10 -5 0
-10 -4 -10 -10z"/>
<path d="M2860 1080 c-12 -7 -10 -9 7 -7 12 0 19 5 17 9 -6 10 -6 10 -24 -2z"/>
<path d="M614 1069 c-4 -7 0 -16 9 -21 10 -5 14 -15 10 -25 -4 -10 -2 -14 7
-11 20 6 20 45 1 44 -9 -1 -15 5 -13 12 3 15 -5 16 -14 1z"/>
<path d="M593 1044 c4 -4 1 -14 -6 -23 -11 -14 -10 -15 8 -1 11 8 21 15 23 16
2 1 -5 5 -15 8 -9 4 -14 4 -10 0z"/>
<path d="M599 993 c-12 -16 -12 -17 2 -6 9 7 20 9 24 5 5 -4 5 -1 1 6 -9 16
-11 15 -27 -5z"/>
<path d="M636 953 c-6 -14 -5 -15 5 -6 7 7 10 15 7 18 -3 3 -9 -2 -12 -12z"/>
<path d="M655 940 c-3 -5 -1 -10 4 -10 6 0 11 5 11 10 0 6 -2 10 -4 10 -3 0
-8 -4 -11 -10z"/>
<path d="M676 913 c-6 -14 -5 -15 5 -6 7 7 10 15 7 18 -3 3 -9 -2 -12 -12z"/>
<path d="M2720 820 c-9 -6 -10 -10 -3 -10 6 0 15 5 18 10 8 12 4 12 -15 0z"/>
<path d="M773 802 c1 -12 6 -18 15 -15 7 3 10 9 5 12 -4 3 -11 10 -15 15 -4 4
-6 -1 -5 -12z"/>
<path d="M823 813 c-15 -5 -17 -23 -4 -23 5 0 11 7 15 15 3 8 4 15 3 14 -1 0
-8 -3 -14 -6z"/>
<path d="M2692 800 c0 -14 2 -19 5 -12 2 6 2 18 0 25 -3 6 -5 1 -5 -13z"/>
<path d="M2565 730 c-10 -11 -22 -17 -28 -13 -6 3 -7 1 -3 -5 4 -6 14 -8 23
-5 12 5 14 3 7 -8 -10 -16 -17 -56 -8 -47 3 3 7 14 9 25 1 10 8 17 14 16 6 -2
11 2 11 7 0 6 -4 10 -10 10 -5 0 -7 7 -3 16 6 15 8 15 20 -2 11 -15 13 -15 13
-2 0 24 -26 29 -45 8z"/>
<path d="M855 700 c-3 -5 -1 -10 4 -10 6 0 11 5 11 10 0 6 -2 10 -4 10 -3 0
-8 -4 -11 -10z"/>
<path d="M930 680 c0 -4 14 -13 30 -20 17 -7 30 -16 30 -21 0 -13 -14 -11 -29
4 -9 8 -12 8 -7 0 3 -6 3 -13 -1 -16 -5 -2 -3 -2 4 -1 6 2 23 -6 37 -17 14
-11 26 -17 26 -12 0 4 5 1 10 -7 7 -11 5 -19 -7 -27 -18 -14 -6 -18 12 -5 13
8 18 55 6 47 -10 -6 -33 19 -25 28 3 3 -4 10 -15 17 -12 6 -19 15 -16 21 4 5
3 10 -2 10 -34 6 -53 5 -53 -1z m77 -47 c-4 -3 -1 -13 6 -22 11 -14 10 -14 -5
-2 -16 12 -16 31 -1 31 4 0 3 -3 0 -7z"/>
<path d="M890 638 c0 -6 3 -8 7 -5 3 4 13 1 22 -6 14 -11 14 -10 2 6 -15 20
-31 22 -31 5z"/>
<path d="M960 606 c0 -2 7 -7 16 -10 8 -3 12 -2 9 4 -6 10 -25 14 -25 6z"/>
<path d="M932 585 c3 -3 16 -8 28 -10 12 -2 20 -1 16 2 -4 4 -16 8 -28 10 -12
2 -19 1 -16 -2z"/>
<path d="M998 573 c7 -3 16 -2 19 1 4 3 -2 6 -13 5 -11 0 -14 -3 -6 -6z"/>
<path d="M2347 569 c6 -6 9 -17 7 -24 -3 -6 1 -12 9 -12 19 0 10 34 -11 42
-13 5 -14 3 -5 -6z"/>
<path d="M1247 549 c7 -7 15 -10 18 -7 3 3 -2 9 -12 12 -14 6 -15 5 -6 -5z"/>
<path d="M1554 529 c-3 -5 2 -9 11 -9 10 0 13 -5 9 -12 -4 -6 -3 -8 4 -4 5 3
13 0 16 -6 5 -11 7 -11 12 0 8 18 24 4 18 -16 -5 -16 -5 -16 6 0 6 10 18 15
28 12 12 -4 12 -2 -3 7 -11 7 -22 12 -24 10 -2 -1 -8 3 -12 11 -7 10 -9 10 -9
1 0 -7 -4 -13 -10 -13 -5 0 -9 5 -7 11 3 14 -31 21 -39 8z"/>
<path d="M1071 527 c2 -1 12 -9 22 -16 15 -12 17 -12 11 3 -3 9 -13 16 -22 16
-8 0 -13 -1 -11 -3z"/>
<path d="M1752 516 c8 -6 13 -16 11 -23 -2 -6 1 -14 6 -18 7 -4 8 0 4 11 -4
11 -3 15 5 10 15 -9 24 10 9 22 -6 5 -20 9 -31 9 -16 0 -16 -2 -4 -11z"/>
<path d="M1394 503 c4 -7 2 -13 -4 -13 -6 0 -8 -4 -5 -10 3 -5 10 -10 15 -10
10 0 7 27 -5 37 -4 4 -5 2 -1 -4z"/>
<path d="M2373 495 c0 -8 4 -12 9 -9 5 3 6 10 3 15 -9 13 -12 11 -12 -6z"/>
<path d="M1476 473 c-6 -14 -5 -15 5 -6 7 7 10 15 7 18 -3 3 -9 -2 -12 -12z"/>
<path d="M1569 477 c6 -8 7 -18 3 -22 -4 -5 -2 -5 5 -1 14 8 6 36 -9 36 -7 0
-6 -5 1 -13z"/>
<path d="M1830 479 c0 -5 5 -7 10 -4 6 3 10 8 10 11 0 2 -4 4 -10 4 -5 0 -10
-5 -10 -11z"/>
<path d="M1867 478 c4 -7 8 -16 8 -20 0 -3 3 -9 7 -13 3 -4 5 1 3 12 -2 10 -4
21 -4 26 -1 4 -6 7 -12 7 -6 0 -7 -5 -2 -12z"/>
<path d="M2100 479 c0 -5 5 -7 10 -4 6 3 10 8 10 11 0 2 -4 4 -10 4 -5 0 -10
-5 -10 -11z"/>
<path d="M2160 479 c0 -5 5 -7 10 -4 6 3 10 8 10 11 0 2 -4 4 -10 4 -5 0 -10
-5 -10 -11z"/>
<path d="M1310 459 c0 -5 5 -7 10 -4 6 3 10 8 10 11 0 2 -4 4 -10 4 -5 0 -10
-5 -10 -11z"/>
<path d="M1780 460 c-9 -6 -10 -10 -3 -10 6 0 15 5 18 10 8 12 4 12 -15 0z"/>
<path d="M1840 460 c-9 -6 -10 -10 -3 -10 6 0 15 5 18 10 8 12 4 12 -15 0z"/>
</g>
</svg>
